<svg width="20" height="20" viewBox="0 0 20 20" fill="none" xmlns="http://www.w3.org/2000/svg">
<path d="M8.12484 5.34996C8.46814 5.34547 8.74535 5.06826 8.74984 4.72496V2.29163C8.74984 1.94645 8.47001 1.66663 8.12484 1.66663C7.77966 1.66663 7.49984 1.94645 7.49984 2.29163V4.72496C7.49984 5.07014 7.77966 5.34996 8.12484 5.34996Z" fill="white"/>
<path d="M3.72349 3.69027C3.9615 3.45226 4.34525 3.44549 4.59151 3.67496L6.34151 5.39163C6.46063 5.5077 6.52781 5.66697 6.52781 5.83329C6.52781 5.99962 6.46063 6.15889 6.34151 6.27496C6.22548 6.3938 6.06592 6.46004 5.89984 6.45829C5.72249 6.46845 5.54938 6.40163 5.42484 6.27496L3.70817 4.55829C3.47871 4.31204 3.48548 3.92829 3.72349 3.69027Z" fill="white"/>
<path d="M9.4415 7.63329L17.0665 10.05C17.6066 10.2122 18.0014 10.6762 18.0751 11.2353C18.1488 11.7945 17.8878 12.3449 17.4082 12.6416L14.7415 14.3083C14.5694 14.4221 14.422 14.5695 14.3082 14.7416L12.6415 17.4083C12.3364 17.8764 11.7871 18.1246 11.2341 18.0441C10.6811 17.9636 10.2254 17.569 10.0665 17.0333L7.67484 9.39996C7.51027 8.89837 7.64184 8.34686 8.01512 7.97358C8.3884 7.6003 8.93991 7.46873 9.4415 7.63329Z" fill="white"/>
<path d="M10.8998 5.13329C10.7787 5.24955 10.6177 5.31513 10.4498 5.31663C10.2797 5.30595 10.1208 5.22799 10.0082 5.09996C9.88905 4.98389 9.82186 4.82462 9.82186 4.65829C9.82186 4.49197 9.88905 4.3327 10.0082 4.21663L11.7332 2.54996C11.8421 2.42657 11.9959 2.35186 12.1602 2.34246C12.3246 2.33307 12.4859 2.38978 12.6082 2.49996C12.8519 2.74397 12.8519 3.13928 12.6082 3.38329L10.8998 5.13329Z" fill="white"/>
<path d="M4.28317 9.97496L2.5665 11.7166C2.35042 11.9524 2.35042 12.3142 2.5665 12.55C2.6836 12.6672 2.84247 12.7331 3.00817 12.7333C3.17317 12.7297 3.3308 12.6643 3.44984 12.55L5.1665 10.8833C5.41021 10.6393 5.41021 10.244 5.1665 9.99996C5.05384 9.87749 4.89646 9.80575 4.73011 9.80104C4.56377 9.79634 4.40258 9.85906 4.28317 9.97496Z" fill="white"/>
<path d="M2.2915 7.49996H4.72484C5.07002 7.49996 5.34984 7.77978 5.34984 8.12496C5.34984 8.47014 5.07002 8.74996 4.72484 8.74996H2.2915C1.94633 8.74996 1.6665 8.47014 1.6665 8.12496C1.6665 7.77978 1.94633 7.49996 2.2915 7.49996Z" fill="white"/>
</svg>
