<svg width="62" height="63" viewBox="0 0 62 63" fill="none" xmlns="http://www.w3.org/2000/svg">
<g clip-path="url(#clip0_17_17341)">
<path d="M23.0519 22.2344C20.2576 21.187 13.0903 23.7634 16.4159 28.8703C25.4964 42.8418 26.8936 47.0275 31.7845 46.6854C38.065 46.2362 61.4743 7.91316 61.4743 5.11887C61.4743 2.32458 54.4886 5.81841 32.1343 34.1111C32.1343 34.1053 24.8141 22.89 23.0519 22.2344Z" fill="white"/>
<path d="M59.2634 31.5002C58.6 31.5282 57.9695 31.7975 57.4906 32.2575C57.0116 32.7174 56.717 33.3365 56.6622 33.9983C55.4027 47.0122 44.4013 57.2203 31.0625 57.2203C16.8808 57.2203 5.34243 45.6819 5.34243 31.5002C5.34243 17.3185 16.8808 5.78013 31.0625 5.78013C34.6348 5.77622 38.1683 6.52105 41.435 7.96663C41.9429 8.18845 42.5072 8.24708 43.0498 8.13445C43.5925 8.02181 44.0867 7.74346 44.4644 7.33783C44.7537 7.02462 44.964 6.6468 45.0777 6.23586C45.1914 5.82492 45.2053 5.39276 45.1181 4.97538C45.031 4.55799 44.8454 4.16746 44.5767 3.83635C44.3081 3.50524 43.9642 3.24313 43.5738 3.07184C39.5381 1.28817 35.1668 0.390713 30.7548 0.440006C13.9489 0.604376 0.243137 14.2433 0.0042269 31.0472C-0.244239 48.3806 13.7845 62.5604 31.0625 62.5604C47.2071 62.5604 60.5134 50.183 61.9889 34.4187C62.0232 34.0433 61.9778 33.6648 61.8556 33.3081C61.7334 32.9514 61.5372 32.6246 61.2799 32.349C61.0225 32.0735 60.7099 31.8554 60.3624 31.7091C60.0149 31.5628 59.6404 31.4916 59.2634 31.5002Z" fill="white"/>
</g>
<defs>
<clipPath id="clip0_17_17341">
<rect width="62" height="62.1223" fill="white" transform="translate(0 0.438141)"/>
</clipPath>
</defs>
</svg>
