<svg width="353" height="353" viewBox="0 0 353 353" fill="none" xmlns="http://www.w3.org/2000/svg">
<path d="M287.694 339.577C296.731 329.15 292.56 315.302 292.56 315.302L286.072 277.013C289.853 274.563 293.359 271.715 296.533 268.517C303.01 262.04 307.567 254.967 309.343 249.119C304.498 246.477 300.514 242.497 297.868 237.654C292.825 239.221 286.834 242.807 281.129 247.938L274.795 210.588C279.529 207.883 283.869 204.542 287.694 200.657C294.182 194.169 298.728 187.085 300.494 181.248C298.095 179.919 295.892 178.263 293.951 176.326C292.009 174.385 290.352 172.178 289.029 169.772C283.303 171.56 276.373 175.951 269.984 182.241L262.029 135.356C303.639 90.1935 335.649 51.2428 335.649 51.2428C362.749 19.9167 348.173 3.91714 348.173 3.91714C348.173 3.91714 332.184 -10.67 300.913 16.4189C300.913 16.4189 261.963 48.418 216.811 90.0611L169.904 82.0944C176.205 75.7166 180.596 68.7761 182.384 63.0494C177.554 60.3822 173.576 56.4041 170.908 51.5738C165.071 53.3834 157.987 57.8964 151.499 64.3845C147.621 68.215 144.28 72.5542 141.568 77.2835L104.218 70.9498C109.349 65.2341 112.946 59.2536 114.502 54.211C112.096 52.8867 109.89 51.2299 107.947 49.2897C106.015 47.3444 104.359 45.1427 103.026 42.7465C97.189 44.5561 90.1161 49.058 83.6279 55.5461C80.4314 58.7186 77.5899 62.2298 75.1537 66.0176L36.854 59.5184C36.854 59.5184 22.9509 55.3475 12.5788 64.3734C2.20664 73.3994 -3.40974 78.9717 9.092 90.0941L146.545 159.135C117.226 190.391 89.6676 223.254 63.9981 257.571L4.11557 253.522L0.06604 267.303L50.8233 301.344L84.8748 352.101L98.6565 348.051L94.607 288.18C128.922 262.504 161.785 234.943 193.043 205.622L262.084 343.064C273.14 355.566 278.657 350.005 287.694 339.577Z" fill="white"/>
</svg>
