<svg width="85" height="85" viewBox="0 0 85 85" fill="none" xmlns="http://www.w3.org/2000/svg">
<g clip-path="url(#clip0_11_2)">
<path d="M69.454 81.9792C71.6357 79.4619 70.6287 76.1188 70.6287 76.1188L69.0624 66.8754C69.975 66.2838 70.8216 65.5962 71.5877 64.8242C73.1514 63.2605 74.2515 61.553 74.6804 60.1412C73.5107 59.5034 72.549 58.5426 71.91 57.3735C70.6926 57.7518 69.2462 58.6175 67.869 59.8562L66.34 50.8391C67.4828 50.1862 68.5305 49.3795 69.454 48.4417C71.0203 46.8753 72.1178 45.1652 72.544 43.756C71.9648 43.4354 71.4331 43.0355 70.9644 42.5679C70.4956 42.0993 70.0956 41.5666 69.7763 40.9856C68.3938 41.4172 66.7209 42.4774 65.1785 43.9958L63.2579 32.6772C73.3032 21.7741 81.031 12.3708 81.031 12.3708C87.5733 4.80823 84.0544 0.945677 84.0544 0.945677C84.0544 0.945677 80.1945 -2.5759 72.6452 3.9638C72.6452 3.9638 63.2419 11.6889 52.3416 21.7422L41.0176 19.8189C42.5387 18.2792 43.5989 16.6036 44.0304 15.2211C42.8643 14.5772 41.904 13.6168 41.26 12.4507C39.8509 12.8876 38.1407 13.9771 36.5744 15.5434C35.638 16.4682 34.8315 17.5157 34.1769 18.6574L25.1599 17.1284C26.3986 15.7486 27.267 14.3048 27.6426 13.0874C27.0619 12.7677 26.5293 12.3677 26.0603 11.8993C25.5937 11.4297 25.194 10.8982 24.8722 10.3197C23.463 10.7565 21.7555 11.8434 20.1892 13.4097C19.4175 14.1756 18.7315 15.0233 18.1434 15.9377L8.89724 14.3687C8.89724 14.3687 5.54082 13.3618 3.03682 15.5408C0.532825 17.7198 -0.823055 19.065 2.19506 21.7501L35.3783 38.4177C28.3002 45.9635 21.6473 53.897 15.4503 62.1817L0.993672 61.2041L0.0160522 64.5312L12.2696 72.7491L20.4902 85.0027L23.8173 84.0251L22.8397 69.5711C31.1239 63.3727 39.0575 56.7188 46.6037 49.6404L63.2712 82.821C65.9404 85.8391 67.2723 84.4966 69.454 81.9792Z" fill="#0466C8"/>
</g>
<defs>
<clipPath id="clip0_11_2">
<rect width="85" height="85" fill="white"/>
</clipPath>
</defs>
</svg>
