<svg width="24" height="23" viewBox="0 0 24 23" fill="none" xmlns="http://www.w3.org/2000/svg">
<path d="M11.9993 8.26011C11.6892 8.26011 11.3919 8.13694 11.1726 7.9177C10.9534 7.69845 10.8302 7.4011 10.8302 7.09104V1.42438C10.8302 1.11432 10.9534 0.816964 11.1726 0.597722C11.3919 0.37848 11.6892 0.25531 11.9993 0.25531C12.3093 0.25531 12.6067 0.37848 12.8259 0.597722C13.0452 0.816964 13.1683 1.11432 13.1683 1.42438V7.09104C13.1683 7.4011 13.0452 7.69845 12.8259 7.9177C12.6067 8.13694 12.3093 8.26011 11.9993 8.26011Z" fill="white"/>
<path d="M11.9993 22.7447C9.40963 22.744 6.90178 21.8376 4.91006 20.1825C2.91835 18.5274 1.56819 16.2278 1.09344 13.6821C0.618689 11.1363 1.04924 8.5047 2.31052 6.24296C3.5718 3.98123 5.58438 2.23183 7.99969 1.29775C8.1587 1.23045 8.32961 1.19579 8.50227 1.19583C8.67492 1.19587 8.84581 1.23061 9.00479 1.29797C9.16376 1.36534 9.30758 1.46397 9.42769 1.588C9.5478 1.71204 9.64177 1.85894 9.704 2.01999C9.76624 2.18105 9.79547 2.35296 9.78997 2.52554C9.78447 2.69811 9.74434 2.86782 9.67198 3.02458C9.59961 3.18134 9.49648 3.32196 9.36871 3.43809C9.24094 3.55422 9.09114 3.64349 8.92819 3.7006C7.0733 4.41742 5.52759 5.76051 4.55886 7.49718C3.59013 9.23384 3.25941 11.2547 3.624 13.2095C3.98859 15.1644 5.02552 16.9302 6.55514 18.2009C8.08476 19.4716 10.0107 20.1672 11.9993 20.1672C13.9879 20.1672 15.9138 19.4716 17.4434 18.2009C18.973 16.9302 20.01 15.1644 20.3746 13.2095C20.7392 11.2547 20.4084 9.23384 19.4397 7.49718C18.471 5.76051 16.9253 4.41742 15.0704 3.7006C14.7598 3.57154 14.5121 3.32621 14.3799 3.01699C14.2478 2.70777 14.2418 2.35915 14.3632 2.04554C14.4845 1.73194 14.7237 1.4782 15.0295 1.33848C15.3354 1.19877 15.6838 1.18415 16.0003 1.29775C18.4157 2.23187 20.4284 3.98139 21.6896 6.24327C22.9509 8.50515 23.3813 11.1369 22.9064 13.6828C22.4315 16.2286 21.0811 18.5282 19.0891 20.1832C17.0971 21.8382 14.589 22.7443 11.9993 22.7447Z" fill="white"/>
</svg>
