<svg width="24" height="24" viewBox="0 0 24 24" fill="none" xmlns="http://www.w3.org/2000/svg">
<path d="M15.7601 6.64355C15.3459 6.64355 15.0101 6.97934 15.0101 7.39355C15.0101 7.80777 15.3459 8.14355 15.7601 8.14355C17.5521 8.15441 19.0037 9.60155 19.0201 11.3936V13.3936C19.0037 15.1856 17.5521 16.6327 15.7601 16.6436H13.5401L14.9101 15.2836C15.2026 14.9907 15.2026 14.5164 14.9101 14.2236C14.7708 14.0806 14.5797 14 14.3801 14C14.1805 14 13.9894 14.0806 13.8501 14.2236L11.2001 16.8636C11.1323 16.9329 11.0781 17.0143 11.0401 17.1036C10.9704 17.2906 10.9704 17.4965 11.0401 17.6836C11.0781 17.7728 11.1323 17.8542 11.2001 17.9236L13.8501 20.5636C14.1429 20.856 14.6173 20.856 14.9101 20.5636C15.2026 20.2707 15.2026 19.7964 14.9101 19.5036L13.5401 18.1436H15.7601C18.3806 18.1326 20.5037 16.014 20.5201 13.3936V11.3936C20.5037 8.77314 18.3806 6.65447 15.7601 6.64355Z" fill="#0466C8"/>
<path d="M12.48 7.68357C12.5497 7.49653 12.5497 7.29061 12.48 7.10357C12.4385 7.01626 12.3847 6.93542 12.32 6.86357L9.67 4.22357C9.53071 4.08062 9.33959 4 9.14 4C8.94041 4 8.74929 4.08062 8.61 4.22357C8.31755 4.51639 8.31755 4.99075 8.61 5.28357L9.98 6.64357H7.76C5.13955 6.65448 3.01642 8.77315 3 11.3936V13.3936C3.01642 16.014 5.13955 18.1327 7.76 18.1436C8.17421 18.1436 8.51 17.8078 8.51 17.3936C8.51 16.9794 8.17421 16.6436 7.76 16.6436C5.96796 16.6327 4.51636 15.1856 4.5 13.3936V11.3936C4.51636 9.60157 5.96796 8.15442 7.76 8.14357H9.97L8.61 9.50357C8.31755 9.79639 8.31755 10.2708 8.61 10.5636C8.90282 10.856 9.37718 10.856 9.67 10.5636L12.32 7.92357C12.3847 7.85172 12.4385 7.77088 12.48 7.68357Z" fill="#0466C8"/>
</svg>
